+ filenameToUse=/home/horvathandras/vatic/vatic/public/videouploads/DJI_0210_30m_sok_ragas_Vaskut_20180602_napos_napraforgo_T3.avi
+ filenameNoDot=DJI_0210_30m_sok_ragas_Vaskut_20180602_napos_napraforgo_T3
+ FullUploadPath=/home/horvathandras/vatic/vatic/public/videouploads/DJI_0210_30m_sok_ragas_Vaskut_20180602_napos_napraforgo_T3.avi
+ VideoDataDir=/home/horvathandras/vatic/vatic/videos
+ AvailableObjectTypes='PozitívROI NegatívROI Túrás ~Friss ~1-2Hetes ~Régebbi ~Egyéb1 ~Egyéb2 ~Egyéb3 Rágás ~Friss ~1-2Hetes ~Régebbi ~Egyéb1 ~Egyéb2 ~Egyéb3 Törés ~Friss ~1-2Hetes ~Régebbi ~Egyéb1 ~Egyéb2 ~Egyéb3 Taposás ~Friss ~1-2Hetes ~Régebbi ~Egyéb1 ~Egyéb2 ~Egyéb3 EgészségesNövény Egyéb1 Egyéb2 Egyéb3 Egyéb4 Egyéb5 Bizonytalan Művelőút Gktaposás Vetőhiba Széldöntés Jégkár Belvíz Aszály Erózió EgyszikűGyom KétszikűGyom EgyébNövvédelmiPR'
++ dirname /home/horvathandras/vatic/vatic/vatic_publisher.sh
+ cd /home/horvathandras/vatic/vatic
+ touch /home/horvathandras/vatic/vatic/public/videouploads/DJI_0210_30m_sok_ragas_Vaskut_20180602_napos_napraforgo_T3.avi
+ chmod 744 /home/horvathandras/vatic/vatic/public/videouploads/DJI_0210_30m_sok_ragas_Vaskut_20180602_napos_napraforgo_T3.avi
+ mkdir /home/horvathandras/vatic/vatic/videos/DJI_0210_30m_sok_ragas_Vaskut_20180602_napos_napraforgo_T3
+ turkic extract /home/horvathandras/vatic/vatic/public/videouploads/DJI_0210_30m_sok_ragas_Vaskut_20180602_napos_napraforgo_T3.avi /home/horvathandras/vatic/vatic/videos/DJI_0210_30m_sok_ragas_Vaskut_20180602_napos_napraforgo_T3 --no-resize
ffmpeg version 2.8.14-0ubuntu0.16.04.1 Copyright (c) 2000-2018 the FFmpeg developers
  built with gcc 5.4.0 (Ubuntu 5.4.0-6ubuntu1~16.04.9) 20160609
  configuration: --prefix=/usr --extra-version=0ubuntu0.16.04.1 --build-suffix=-ffmpeg --toolchain=hardened --libdir=/usr/lib/x86_64-linux-gnu --incdir=/usr/include/x86_64-linux-gnu --cc=cc --cxx=g++ --enable-gpl --enable-shared --disable-stripping --disable-decoder=libopenjpeg --disable-decoder=libschroedinger --enable-avresample --enable-avisynth --enable-gnutls --enable-ladspa --enable-libass --enable-libbluray --enable-libbs2b --enable-libcaca --enable-libcdio --enable-libflite --enable-libfontconfig --enable-libfreetype --enable-libfribidi --enable-libgme --enable-libgsm --enable-libmodplug --enable-libmp3lame --enable-libopenjpeg --enable-libopus --enable-libpulse --enable-librtmp --enable-libschroedinger --enable-libshine --enable-libsnappy --enable-libsoxr --enable-libspeex --enable-libssh --enable-libtheora --enable-libtwolame --enable-libvorbis --enable-libvpx --enable-libwavpack --enable-libwebp --enable-libx265 --enable-libxvid --enable-libzvbi --enable-openal --enable-opengl --enable-x11grab --enable-libdc1394 --enable-libiec61883 --enable-libzmq --enable-frei0r --enable-libx264 --enable-libopencv
  libavutil      54. 31.100 / 54. 31.100
  libavcodec     56. 60.100 / 56. 60.100
  libavformat    56. 40.101 / 56. 40.101
  libavdevice    56.  4.100 / 56.  4.100
  libavfilter     5. 40.101 /  5. 40.101
  libavresample   2.  1.  0 /  2.  1.  0
  libswscale      3.  1.101 /  3.  1.101
  libswresample   1.  2.101 /  1.  2.101
  libpostproc    53.  3.100 / 53.  3.100
Input #0, mov,mp4,m4a,3gp,3g2,mj2, from '/home/horvathandras/vatic/vatic/public/videouploads/DJI_0210_30m_sok_ragas_Vaskut_20180602_napos_napraforgo_T3.avi':
  Metadata:
    major_brand     : qt  
    minor_version   : 537986816
    compatible_brands: qt  
    creation_time   : 2018-06-02 06:55:45
    location        : +46.073560+18.994533+30.700
    location-{    : +46.073560+18.994533+30.700
    comment         : DE=None, Mode=P, DSW=0001
  Duration: 00:00:21.92, start: 0.000000, bitrate: 100733 kb/s
    Stream #0:0(eng): Video: h264 (High) (avc1 / 0x31637661), yuv420p(tv, bt709), 4096x2160 [SAR 1:1 DAR 256:135], 100600 kb/s, 59.94 fps, 59.94 tbr, 60k tbn, 119.88 tbc (default)
    Metadata:
      creation_time   : 2018-06-02 06:55:45
      handler_name    : DJI.AVC
      encoder         : AVC encoder
    Stream #0:1(eng): Data: none (priv / 0x76697270), 121 kb/s
    Metadata:
      creation_time   : 2018-06-02 06:55:45
      handler_name    : DJI.Meta
Please use -b:a or -b:v, -b is ambiguous
[swscaler @ 0x25df720] deprecated pixel format used, make sure you did set range correctly
Output #0, image2, to '/tmp/pyvision-ffmpeg-232184304/%d.jpg':
  Metadata:
    major_brand     : qt  
    minor_version   : 537986816
    compatible_brands: qt  
    comment         : DE=None, Mode=P, DSW=0001
    location        : +46.073560+18.994533+30.700
    location-{    : +46.073560+18.994533+30.700
    encoder         : Lavf56.40.101
    Stream #0:0(eng): Video: mjpeg, yuvj420p(pc), 4096x2160 [SAR 1:1 DAR 256:135], q=2-31, 10000 kb/s, 59.94 fps, 59.94 tbn, 59.94 tbc (default)
    Metadata:
      creation_time   : 2018-06-02 06:55:45
      handler_name    : DJI.AVC
      encoder         : Lavc56.60.100 mjpeg
Stream mapping:
  Stream #0:0 -> #0:0 (h264 (native) -> mjpeg (native))
Press [q] to stop, [?] for help
frame=    2 fps=0.0 q=15.0 size=N/A time=00:00:00.03 bitrate=N/A    frame=    7 fps=6.3 q=24.8 size=N/A time=00:00:00.11 bitrate=N/A    frame=   13 fps=7.7 q=24.8 size=N/A time=00:00:00.21 bitrate=N/A    frame=   19 fps=8.5 q=24.8 size=N/A time=00:00:00.31 bitrate=N/A    frame=   25 fps=8.9 q=24.8 size=N/A time=00:00:00.41 bitrate=N/A    frame=   30 fps=8.9 q=24.8 size=N/A time=00:00:00.50 bitrate=N/A    frame=   36 fps=9.1 q=24.8 size=N/A time=00:00:00.60 bitrate=N/A    frame=   42 fps=9.3 q=24.8 size=N/A time=00:00:00.70 bitrate=N/A    frame=   48 fps=9.5 q=24.8 size=N/A time=00:00:00.80 bitrate=N/A    frame=   54 fps=9.6 q=24.8 size=N/A time=00:00:00.90 bitrate=N/A    frame=   60 fps=9.7 q=24.8 size=N/A time=00:00:01.00 bitrate=N/A    frame=   65 fps=9.7 q=24.8 size=N/A time=00:00:01.08 bitrate=N/A    frame=   71 fps=9.7 q=24.8 size=N/A time=00:00:01.18 bitrate=N/A    frame=   77 fps=9.8 q=24.8 size=N/A time=00:00:01.28 bitrate=N/A    frame=   83 fps=9.8 q=24.8 size=N/A time=00:00:01.38 bitrate=N/A    frame=   89 fps=9.8 q=24.8 size=N/A time=00:00:01.48 bitrate=N/A    frame=   95 fps=9.9 q=24.8 size=N/A time=00:00:01.58 bitrate=N/A    frame=  101 fps=9.9 q=24.8 size=N/A time=00:00:01.68 bitrate=N/A    frame=  107 fps=9.9 q=24.8 size=N/A time=00:00:01.78 bitrate=N/A    frame=  113 fps= 10 q=24.8 size=N/A time=00:00:01.88 bitrate=N/A    frame=  119 fps= 10 q=24.8 size=N/A time=00:00:01.98 bitrate=N/A    frame=  124 fps= 10 q=24.8 size=N/A time=00:00:02.06 bitrate=N/A    frame=  130 fps= 10 q=24.8 size=N/A time=00:00:02.16 bitrate=N/A    frame=  135 fps= 10 q=24.8 size=N/A time=00:00:02.25 bitrate=N/A    frame=  141 fps= 10 q=24.8 size=N/A time=00:00:02.35 bitrate=N/A    frame=  147 fps= 10 q=24.8 size=N/A time=00:00:02.45 bitrate=N/A    frame=  152 fps= 10 q=24.8 size=N/A time=00:00:02.53 bitrate=N/A    frame=  158 fps= 10 q=24.8 size=N/A time=00:00:02.63 bitrate=N/A    frame=  164 fps= 10 q=24.8 size=N/A time=00:00:02.73 bitrate=N/A    frame=  169 fps= 10 q=24.8 size=N/A time=00:00:02.81 bitrate=N/A    frame=  175 fps= 10 q=24.8 size=N/A time=00:00:02.91 bitrate=N/A    frame=  181 fps= 10 q=24.8 size=N/A time=00:00:03.01 bitrate=N/A    frame=  187 fps= 10 q=24.8 size=N/A time=00:00:03.11 bitrate=N/A    frame=  193 fps= 10 q=24.8 size=N/A time=00:00:03.21 bitrate=N/A    frame=  199 fps= 10 q=24.8 size=N/A time=00:00:03.31 bitrate=N/A    frame=  205 fps= 10 q=24.8 size=N/A time=00:00:03.42 bitrate=N/A    frame=  210 fps= 10 q=24.8 size=N/A time=00:00:03.50 bitrate=N/A    frame=  216 fps= 10 q=24.8 size=N/A time=00:00:03.60 bitrate=N/A    frame=  222 fps= 10 q=24.8 size=N/A time=00:00:03.70 bitrate=N/A    frame=  228 fps= 10 q=24.8 size=N/A time=00:00:03.80 bitrate=N/A    frame=  234 fps= 10 q=24.8 size=N/A time=00:00:03.90 bitrate=N/A    frame=  240 fps= 10 q=24.8 size=N/A time=00:00:04.00 bitrate=N/A    frame=  246 fps= 10 q=24.8 size=N/A time=00:00:04.10 bitrate=N/A    frame=  252 fps= 10 q=24.8 size=N/A time=00:00:04.20 bitrate=N/A    frame=  258 fps= 10 q=24.8 size=N/A time=00:00:04.30 bitrate=N/A    frame=  264 fps= 10 q=24.8 size=N/A time=00:00:04.40 bitrate=N/A    frame=  270 fps= 10 q=24.8 size=N/A time=00:00:04.50 bitrate=N/A    frame=  276 fps= 10 q=24.8 size=N/A time=00:00:04.60 bitrate=N/A    frame=  282 fps= 10 q=24.8 size=N/A time=00:00:04.70 bitrate=N/A    frame=  288 fps= 10 q=24.8 size=N/A time=00:00:04.80 bitrate=N/A    frame=  294 fps= 10 q=24.8 size=N/A time=00:00:04.90 bitrate=N/A    frame=  300 fps= 10 q=24.8 size=N/A time=00:00:05.00 bitrate=N/A    frame=  306 fps= 10 q=24.8 size=N/A time=00:00:05.10 bitrate=N/A    frame=  312 fps= 10 q=24.8 size=N/A time=00:00:05.20 bitrate=N/A    frame=  318 fps= 10 q=24.8 size=N/A time=00:00:05.30 bitrate=N/A    frame=  324 fps= 10 q=24.8 size=N/A time=00:00:05.40 bitrate=N/A    frame=  330 fps= 10 q=24.8 size=N/A time=00:00:05.50 bitrate=N/A    frame=  336 fps= 10 q=24.8 size=N/A time=00:00:05.60 bitrate=N/A    frame=  342 fps= 10 q=24.8 size=N/A time=00:00:05.70 bitrate=N/A    frame=  348 fps= 10 q=24.8 size=N/A time=00:00:05.80 bitrate=N/A    frame=  354 fps= 10 q=24.8 size=N/A time=00:00:05.90 bitrate=N/A    frame=  360 fps= 10 q=24.8 size=N/A time=00:00:06.00 bitrate=N/A    frame=  366 fps= 10 q=24.8 size=N/A time=00:00:06.10 bitrate=N/A    frame=  372 fps= 10 q=24.8 size=N/A time=00:00:06.20 bitrate=N/A    frame=  378 fps= 10 q=24.8 size=N/A time=00:00:06.30 bitrate=N/A    frame=  384 fps= 10 q=24.8 size=N/A time=00:00:06.40 bitrate=N/A    frame=  390 fps= 10 q=24.8 size=N/A time=00:00:06.50 bitrate=N/A    frame=  396 fps= 10 q=24.8 size=N/A time=00:00:06.60 bitrate=N/A    frame=  402 fps= 10 q=24.8 size=N/A time=00:00:06.70 bitrate=N/A    frame=  408 fps= 10 q=24.8 size=N/A time=00:00:06.80 bitrate=N/A    frame=  414 fps= 10 q=24.8 size=N/A time=00:00:06.90 bitrate=N/A    frame=  420 fps= 10 q=24.8 size=N/A time=00:00:07.00 bitrate=N/A    frame=  426 fps= 10 q=24.8 size=N/A time=00:00:07.10 bitrate=N/A    frame=  432 fps= 10 q=24.8 size=N/A time=00:00:07.20 bitrate=N/A    frame=  438 fps= 10 q=24.8 size=N/A time=00:00:07.30 bitrate=N/A    frame=  444 fps= 10 q=24.8 size=N/A time=00:00:07.40 bitrate=N/A    frame=  450 fps= 10 q=24.8 size=N/A time=00:00:07.50 bitrate=N/A    frame=  456 fps= 10 q=24.8 size=N/A time=00:00:07.60 bitrate=N/A    frame=  462 fps= 10 q=24.8 size=N/A time=00:00:07.70 bitrate=N/A    frame=  468 fps= 10 q=24.8 size=N/A time=00:00:07.80 bitrate=N/A    frame=  474 fps= 10 q=24.8 size=N/A time=00:00:07.90 bitrate=N/A    frame=  480 fps= 10 q=24.8 size=N/A time=00:00:08.00 bitrate=N/A    frame=  486 fps= 10 q=24.8 size=N/A time=00:00:08.10 bitrate=N/A    frame=  492 fps= 10 q=24.8 size=N/A time=00:00:08.20 bitrate=N/A    frame=  498 fps= 10 q=24.8 size=N/A time=00:00:08.30 bitrate=N/A    frame=  504 fps= 10 q=24.8 size=N/A time=00:00:08.40 bitrate=N/A    frame=  510 fps= 10 q=24.8 size=N/A time=00:00:08.50 bitrate=N/A    frame=  516 fps= 10 q=24.8 size=N/A time=00:00:08.60 bitrate=N/A    frame=  522 fps= 10 q=24.8 size=N/A time=00:00:08.70 bitrate=N/A    frame=  528 fps= 10 q=24.8 size=N/A time=00:00:08.80 bitrate=N/A    frame=  534 fps= 10 q=24.8 size=N/A time=00:00:08.90 bitrate=N/A    frame=  540 fps= 10 q=24.8 size=N/A time=00:00:09.00 bitrate=N/A    frame=  546 fps= 10 q=24.8 size=N/A time=00:00:09.10 bitrate=N/A    frame=  552 fps= 10 q=24.8 size=N/A time=00:00:09.20 bitrate=N/A    frame=  558 fps= 10 q=24.8 size=N/A time=00:00:09.30 bitrate=N/A    frame=  564 fps= 10 q=24.8 size=N/A time=00:00:09.40 bitrate=N/A    frame=  570 fps= 10 q=24.8 size=N/A time=00:00:09.50 bitrate=N/A    frame=  576 fps= 10 q=24.8 size=N/A time=00:00:09.60 bitrate=N/A    frame=  582 fps= 10 q=24.8 size=N/A time=00:00:09.70 bitrate=N/A    frame=  588 fps= 10 q=24.8 size=N/A time=00:00:09.80 bitrate=N/A    frame=  594 fps= 11 q=24.8 size=N/A time=00:00:09.90 bitrate=N/A    frame=  600 fps= 11 q=24.8 size=N/A time=00:00:10.01 bitrate=N/A    frame=  606 fps= 11 q=24.8 size=N/A time=00:00:10.11 bitrate=N/A    frame=  612 fps= 11 q=24.8 size=N/A time=00:00:10.21 bitrate=N/A    frame=  618 fps= 11 q=24.8 size=N/A time=00:00:10.31 bitrate=N/A    frame=  624 fps= 11 q=24.8 size=N/A time=00:00:10.41 bitrate=N/A    frame=  630 fps= 11 q=24.8 size=N/A time=00:00:10.51 bitrate=N/A    frame=  636 fps= 11 q=24.8 size=N/A time=00:00:10.61 bitrate=N/A    frame=  642 fps= 11 q=24.8 size=N/A time=00:00:10.71 bitrate=N/A    frame=  648 fps= 11 q=24.8 size=N/A time=00:00:10.81 bitrate=N/A    frame=  654 fps= 11 q=24.8 size=N/A time=00:00:10.91 bitrate=N/A    frame=  660 fps= 11 q=24.8 size=N/A time=00:00:11.01 bitrate=N/A    frame=  666 fps= 11 q=24.8 size=N/A time=00:00:11.11 bitrate=N/A    frame=  672 fps= 11 q=24.8 size=N/A time=00:00:11.21 bitrate=N/A    frame=  678 fps= 11 q=24.8 size=N/A time=00:00:11.31 bitrate=N/A    frame=  684 fps= 11 q=24.8 size=N/A time=00:00:11.41 bitrate=N/A    frame=  690 fps= 11 q=24.8 size=N/A time=00:00:11.51 bitrate=N/A    frame=  696 fps= 11 q=24.8 size=N/A time=00:00:11.61 bitrate=N/A    frame=  702 fps= 11 q=24.8 size=N/A time=00:00:11.71 bitrate=N/A    frame=  708 fps= 11 q=24.8 size=N/A time=00:00:11.81 bitrate=N/A    frame=  714 fps= 11 q=24.8 size=N/A time=00:00:11.91 bitrate=N/A    frame=  720 fps= 11 q=24.8 size=N/A time=00:00:12.01 bitrate=N/A    frame=  726 fps= 11 q=24.8 size=N/A time=00:00:12.11 bitrate=N/A    frame=  732 fps= 11 q=24.8 size=N/A time=00:00:12.21 bitrate=N/A    frame=  738 fps= 11 q=24.8 size=N/A time=00:00:12.31 bitrate=N/A    frame=  744 fps= 11 q=24.8 size=N/A time=00:00:12.41 bitrate=N/A    frame=  750 fps= 11 q=24.8 size=N/A time=00:00:12.51 bitrate=N/A    frame=  756 fps= 11 q=24.8 size=N/A time=00:00:12.61 bitrate=N/A    frame=  762 fps= 11 q=24.8 size=N/A time=00:00:12.71 bitrate=N/A    frame=  768 fps= 11 q=24.8 size=N/A time=00:00:12.81 bitrate=N/A    frame=  774 fps= 11 q=24.8 size=N/A time=00:00:12.91 bitrate=N/A    frame=  780 fps= 11 q=24.8 size=N/A time=00:00:13.01 bitrate=N/A    frame=  786 fps= 11 q=24.8 size=N/A time=00:00:13.11 bitrate=N/A    frame=  792 fps= 11 q=24.8 size=N/A time=00:00:13.21 bitrate=N/A    frame=  798 fps= 11 q=24.8 size=N/A time=00:00:13.31 bitrate=N/A    frame=  804 fps= 11 q=24.8 size=N/A time=00:00:13.41 bitrate=N/A    frame=  810 fps= 11 q=24.8 size=N/A time=00:00:13.51 bitrate=N/A    frame=  816 fps= 11 q=24.8 size=N/A time=00:00:13.61 bitrate=N/A    frame=  822 fps= 11 q=24.8 size=N/A time=00:00:13.71 bitrate=N/A    frame=  828 fps= 11 q=24.8 size=N/A time=00:00:13.81 bitrate=N/A    frame=  834 fps= 11 q=24.8 size=N/A time=00:00:13.91 bitrate=N/A    frame=  840 fps= 11 q=24.8 size=N/A time=00:00:14.01 bitrate=N/A    frame=  846 fps= 11 q=24.8 size=N/A time=00:00:14.11 bitrate=N/A    frame=  852 fps= 11 q=24.8 size=N/A time=00:00:14.21 bitrate=N/A    frame=  858 fps= 11 q=24.8 size=N/A time=00:00:14.31 bitrate=N/A    frame=  864 fps= 11 q=24.8 size=N/A time=00:00:14.41 bitrate=N/A    frame=  870 fps= 11 q=24.8 size=N/A time=00:00:14.51 bitrate=N/A    frame=  876 fps= 11 q=24.8 size=N/A time=00:00:14.61 bitrate=N/A    frame=  882 fps= 11 q=24.8 size=N/A time=00:00:14.71 bitrate=N/A    frame=  888 fps= 11 q=24.8 size=N/A time=00:00:14.81 bitrate=N/A    frame=  894 fps= 11 q=24.8 size=N/A time=00:00:14.91 bitrate=N/A    frame=  900 fps= 11 q=24.8 size=N/A time=00:00:15.01 bitrate=N/A    frame=  906 fps= 11 q=24.8 size=N/A time=00:00:15.11 bitrate=N/A    frame=  912 fps= 11 q=24.8 size=N/A time=00:00:15.21 bitrate=N/A    frame=  918 fps= 11 q=24.8 size=N/A time=00:00:15.31 bitrate=N/A    frame=  924 fps= 11 q=24.8 size=N/A time=00:00:15.41 bitrate=N/A    frame=  930 fps= 11 q=24.8 size=N/A time=00:00:15.51 bitrate=N/A    frame=  936 fps= 11 q=24.8 size=N/A time=00:00:15.61 bitrate=N/A    frame=  942 fps= 11 q=24.8 size=N/A time=00:00:15.71 bitrate=N/A    frame=  948 fps= 11 q=24.8 size=N/A time=00:00:15.81 bitrate=N/A    frame=  954 fps= 11 q=24.8 size=N/A time=00:00:15.91 bitrate=N/A    frame=  960 fps= 11 q=24.8 size=N/A time=00:00:16.01 bitrate=N/A    frame=  966 fps= 11 q=24.8 size=N/A time=00:00:16.11 bitrate=N/A    frame=  972 fps= 11 q=24.8 size=N/A time=00:00:16.21 bitrate=N/A    frame=  978 fps= 11 q=24.8 size=N/A time=00:00:16.31 bitrate=N/A    frame=  984 fps= 11 q=24.8 size=N/A time=00:00:16.41 bitrate=N/A    frame=  990 fps= 11 q=24.8 size=N/A time=00:00:16.51 bitrate=N/A    frame=  996 fps= 11 q=24.8 size=N/A time=00:00:16.61 bitrate=N/A    frame= 1002 fps= 11 q=24.8 size=N/A time=00:00:16.71 bitrate=N/A    frame= 1008 fps= 11 q=24.8 size=N/A time=00:00:16.81 bitrate=N/A    frame= 1014 fps= 11 q=24.8 size=N/A time=00:00:16.91 bitrate=N/A    frame= 1020 fps= 11 q=24.8 size=N/A time=00:00:17.01 bitrate=N/A    frame= 1026 fps= 11 q=24.8 size=N/A time=00:00:17.11 bitrate=N/A    frame= 1032 fps= 11 q=24.8 size=N/A time=00:00:17.21 bitrate=N/A    frame= 1038 fps= 11 q=24.8 size=N/A time=00:00:17.31 bitrate=N/A    frame= 1044 fps= 11 q=24.8 size=N/A time=00:00:17.41 bitrate=N/A    frame= 1050 fps= 11 q=24.8 size=N/A time=00:00:17.51 bitrate=N/A    frame= 1056 fps= 11 q=24.8 size=N/A time=00:00:17.61 bitrate=N/A    frame= 1062 fps= 11 q=24.8 size=N/A time=00:00:17.71 bitrate=N/A    frame= 1068 fps= 11 q=24.8 size=N/A time=00:00:17.81 bitrate=N/A    frame= 1074 fps= 11 q=24.8 size=N/A time=00:00:17.91 bitrate=N/A    frame= 1080 fps= 11 q=24.8 size=N/A time=00:00:18.01 bitrate=N/A    frame= 1086 fps= 11 q=24.8 size=N/A time=00:00:18.11 bitrate=N/A    frame= 1092 fps= 11 q=24.8 size=N/A time=00:00:18.21 bitrate=N/A    frame= 1098 fps= 11 q=24.8 size=N/A time=00:00:18.31 bitrate=N/A    frame= 1104 fps= 11 q=24.8 size=N/A time=00:00:18.41 bitrate=N/A    frame= 1110 fps= 11 q=24.8 size=N/A time=00:00:18.51 bitrate=N/A    frame= 1116 fps= 11 q=24.8 size=N/A time=00:00:18.61 bitrate=N/A    frame= 1122 fps= 11 q=24.8 size=N/A time=00:00:18.71 bitrate=N/A    frame= 1128 fps= 11 q=24.8 size=N/A time=00:00:18.81 bitrate=N/A    frame= 1134 fps= 11 q=24.8 size=N/A time=00:00:18.91 bitrate=N/A    frame= 1140 fps= 11 q=24.8 size=N/A time=00:00:19.01 bitrate=N/A    frame= 1146 fps= 11 q=24.8 size=N/A time=00:00:19.11 bitrate=N/A    frame= 1152 fps= 11 q=24.8 size=N/A time=00:00:19.21 bitrate=N/A    frame= 1158 fps= 11 q=24.8 size=N/A time=00:00:19.31 bitrate=N/A    frame= 1164 fps= 11 q=24.8 size=N/A time=00:00:19.41 bitrate=N/A    frame= 1170 fps= 11 q=24.8 size=N/A time=00:00:19.51 bitrate=N/A    frame= 1176 fps= 11 q=24.8 size=N/A time=00:00:19.61 bitrate=N/A    frame= 1182 fps= 11 q=24.8 size=N/A time=00:00:19.71 bitrate=N/A    frame= 1188 fps= 11 q=24.8 size=N/A time=00:00:19.81 bitrate=N/A    frame= 1194 fps= 11 q=24.8 size=N/A time=00:00:19.91 bitrate=N/A    frame= 1200 fps= 11 q=24.8 size=N/A time=00:00:20.02 bitrate=N/A    frame= 1206 fps= 11 q=24.8 size=N/A time=00:00:20.12 bitrate=N/A    frame= 1212 fps= 11 q=24.8 size=N/A time=00:00:20.22 bitrate=N/A    frame= 1218 fps= 11 q=24.8 size=N/A time=00:00:20.32 bitrate=N/A    frame= 1224 fps= 11 q=24.8 size=N/A time=00:00:20.42 bitrate=N/A    frame= 1230 fps= 11 q=24.8 size=N/A time=00:00:20.52 bitrate=N/A    frame= 1236 fps= 11 q=24.8 size=N/A time=00:00:20.62 bitrate=N/A    frame= 1242 fps= 11 q=24.8 size=N/A time=00:00:20.72 bitrate=N/A    frame= 1248 fps= 11 q=24.8 size=N/A time=00:00:20.82 bitrate=N/A    frame= 1254 fps= 11 q=24.8 size=N/A time=00:00:20.92 bitrate=N/A    frame= 1260 fps= 11 q=24.8 size=N/A time=00:00:21.02 bitrate=N/A    frame= 1266 fps= 11 q=24.8 size=N/A time=00:00:21.12 bitrate=N/A    frame= 1272 fps= 11 q=24.8 size=N/A time=00:00:21.22 bitrate=N/A    frame= 1278 fps= 11 q=24.8 size=N/A time=00:00:21.32 bitrate=N/A    frame= 1284 fps= 11 q=24.8 size=N/A time=00:00:21.42 bitrate=N/A    frame= 1290 fps= 11 q=24.8 size=N/A time=00:00:21.52 bitrate=N/A    frame= 1296 fps= 11 q=24.8 size=N/A time=00:00:21.62 bitrate=N/A    frame= 1302 fps= 11 q=24.8 size=N/A time=00:00:21.72 bitrate=N/A    frame= 1308 fps= 11 q=24.8 size=N/A time=00:00:21.82 bitrate=N/A    frame= 1314 fps= 11 q=24.8 size=N/A time=00:00:21.92 bitrate=N/A    frame= 1314 fps= 11 q=24.8 Lsize=N/A time=00:00:21.92 bitrate=N/A    
video:576859kB audio:0kB subtitle:0kB other streams:0kB global headers:0kB muxing overhead: unknown
+ turkic load DJI_0210_30m_sok_ragas_Vaskut_20180602_napos_napraforgo_T3 /home/horvathandras/vatic/vatic/videos/DJI_0210_30m_sok_ragas_Vaskut_20180602_napos_napraforgo_T3 $'Pozit\303\255vROI' $'Negat\303\255vROI' $'T\303\272r\303\241s' '~Friss' '~1-2Hetes' '~Régebbi' '~Egyéb1' '~Egyéb2' '~Egyéb3' $'R\303\241g\303\241s' '~Friss' '~1-2Hetes' '~Régebbi' '~Egyéb1' '~Egyéb2' '~Egyéb3' $'T\303\266r\303\251s' '~Friss' '~1-2Hetes' '~Régebbi' '~Egyéb1' '~Egyéb2' '~Egyéb3' $'Tapos\303\241s' '~Friss' '~1-2Hetes' '~Régebbi' '~Egyéb1' '~Egyéb2' '~Egyéb3' $'Eg\303\251szs\303\251gesN\303\266v\303\251ny' $'Egy\303\251b1' $'Egy\303\251b2' $'Egy\303\251b3' $'Egy\303\251b4' $'Egy\303\251b5' Bizonytalan $'M\305\261vel\305\221\303\272t' $'Gktapos\303\241s' $'Vet\305\221hiba' $'Sz\303\251ld\303\266nt\303\251s' $'J\303\251gk\303\241r' $'Belv\303\255z' $'Asz\303\241ly' $'Er\303\263zi\303\263' $'Egyszik\305\261Gyom' $'K\303\251tszik\305\261Gyom' $'Egy\303\251bN\303\266vv\303\251delmiPR' --offline --title '$filenameNoDot Video' --length 1000 --description 'vatic annotation'
+ turkic publish --offline
+ mkdir /home/horvathandras/vatic/vatic/public/videothumbnails/DJI_0210_30m_sok_ragas_Vaskut_20180602_napos_napraforgo_T3
+ cp /home/horvathandras/vatic/vatic/videos/DJI_0210_30m_sok_ragas_Vaskut_20180602_napos_napraforgo_T3/0/0/31.jpg /home/horvathandras/vatic/vatic/public/videothumbnails/DJI_0210_30m_sok_ragas_Vaskut_20180602_napos_napraforgo_T3/thumb.jpg
